# xmcd
#
# Track frame offsets:
#	150
#	12003
#	33082
#	53277
#	65847
#	86683
#	110640
#	128417
#	144754
#
# Disc length: 2159 seconds
#
# Revision: 0
# Processed by: cddbd v1.5.2PL0 Copyright (c) Steve Scherf et al.
# Submitted via: EasyCDDAExtractor 9.1.3.1
#
DISCID=65086d09
DTITLE=David Langley - Guitars, Livin' And Lovin'
DYEAR=2007
DGENRE=Country
TTITLE0=It's A Texas Thing
TTITLE1=All I have To Give Her, Is Me
TTITLE2=Until You
TTITLE3=I Always "Buck" It Up
TTITLE4=I Can't Tell Her The Truth
TTITLE5=Make Up and Faded Blue Jeans
TTITLE6=Let's fall in Love Tonight
TTITLE7=I Wonder If she ever Thinks Of Me
TTITLE8=If I Could Just Be With You Again
EXTD=
EXTT0=
EXTT1=
EXTT2=
EXTT3=
EXTT4=
EXTT5=
EXTT6=
EXTT7=
EXTT8=
PLAYORDER=
